<?xml version="1.0" standalone="no"?>
<!DOCTYPE svg PUBLIC "-//W3C//DTD SVG 20010904//EN"
 "http://www.w3.org/TR/2001/REC-SVG-20010904/DTD/svg10.dtd">
<svg version="1.0" xmlns="http://www.w3.org/2000/svg"
 width="960.000000pt" height="960.000000pt" viewBox="0 0 960.000000 960.000000"
 preserveAspectRatio="xMidYMid meet">
<metadata>
Created by potrace 1.14, written by Peter Selinger 2001-2017
</metadata>
<g transform="translate(0.000000,960.000000) scale(0.100000,-0.100000)"
fill="#000000" stroke="none">
<path d="M1905 8904 c-75 -12 -163 -51 -289 -129 -75 -47 -141 -85 -145 -85
-5 0 -11 -4 -13 -8 -3 -7 -33 -28 -143 -97 -16 -11 -32 -20 -35 -21 -3 0 -18
-6 -35 -14 -32 -13 -24 -15 -211 38 -95 27 -190 21 -289 -17 -102 -40 -236
-114 -284 -157 -22 -21 -51 -24 -126 -13 -5 1 -28 -1 -49 -5 -176 -29 -297
-227 -282 -461 8 -134 49 -231 140 -330 63 -69 63 -80 6 -246 -22 -64 -43
-137 -47 -160 -8 -57 -8 -191 0 -252 6 -46 41 -142 59 -161 4 -6 8 -18 8 -28
0 -10 3 -18 8 -18 4 0 19 -21 34 -48 15 -26 43 -65 64 -87 21 -22 52 -64 69
-92 39 -63 38 -100 -6 -212 -16 -41 -31 -83 -34 -95 -2 -12 -4 -21 -5 -21 -11
0 -15 -149 -5 -165 4 -6 9 -53 11 -103 3 -104 7 -126 27 -167 15 -29 15 -47 1
-135 -14 -94 -8 -211 15 -253 6 -12 9 -22 6 -22 -9 0 46 -103 82 -153 33 -45
35 -50 27 -100 -9 -64 -10 -191 -2 -232 4 -16 16 -64 28 -105 12 -41 24 -84
26 -95 56 -247 53 -386 -12 -502 -52 -93 -63 -211 -29 -307 15 -43 69 -143 85
-156 23 -19 58 -168 42 -180 -13 -10 -73 -119 -77 -140 0 -3 -6 -27 -13 -55
-26 -113 -31 -253 -11 -327 6 -24 13 -51 15 -61 2 -11 19 -51 38 -90 32 -68
42 -97 52 -157 8 -43 47 -150 56 -150 4 0 7 -3 6 -7 -1 -5 5 -19 15 -33 13
-20 16 -43 13 -110 -2 -47 -9 -110 -15 -140 -32 -153 -7 -243 98 -352 l36 -37
1 -128 c1 -70 4 -141 8 -158 9 -41 30 -99 36 -105 4 -3 14 -22 23 -42 25 -53
114 -140 172 -167 126 -59 280 -17 365 101 56 78 72 139 74 285 1 147 -9 123
97 234 44 46 94 132 105 181 11 46 11 151 1 192 -6 22 -21 61 -35 86 -35 64
-37 118 -8 182 21 46 32 76 43 113 25 87 25 210 -1 280 -11 28 -107 218 -118
231 -11 15 2 47 46 116 75 118 106 278 82 418 -8 45 -20 87 -30 111 -4 9 3 41
14 72 19 49 26 75 34 124 4 22 11 22 56 7 25 -9 76 -18 113 -19 80 -4 80 -4
138 -125 22 -47 46 -96 52 -110 7 -14 18 -31 25 -38 6 -7 12 -16 12 -20 0 -4
15 -23 33 -42 85 -94 176 -120 328 -96 36 6 49 4 62 -8 14 -15 88 -51 95 -47
1 1 13 -1 27 -5 45 -11 80 -73 91 -164 18 -142 101 -267 213 -318 45 -21 68
-25 147 -24 l94 0 11 -41 c52 -192 154 -325 304 -398 35 -18 72 -40 80 -49 9
-10 31 -55 50 -100 66 -159 147 -263 270 -347 104 -71 108 -77 107 -163 0 -14
4 -45 10 -70 5 -25 11 -53 13 -63 12 -59 52 -146 121 -264 30 -50 54 -96 54
-102 0 -6 3 -11 8 -11 4 0 18 -21 30 -47 58 -118 69 -135 107 -176 40 -44 99
-87 165 -121 28 -14 43 -34 74 -100 37 -77 83 -146 116 -174 8 -7 37 -24 64
-38 45 -24 58 -26 131 -22 71 4 87 8 127 36 26 18 56 43 67 58 24 31 60 104
66 134 2 13 6 24 8 27 7 6 37 -8 37 -18 0 -5 7 -9 15 -9 8 0 15 -4 15 -8 0
-16 101 -40 158 -38 120 6 204 79 262 230 33 85 39 109 45 181 5 57 15 141 21
170 2 11 6 43 9 70 2 28 16 84 31 125 54 156 61 282 23 457 -5 26 -11 57 -13
68 -2 11 -15 56 -29 100 -31 99 -34 110 -42 160 -13 86 41 223 121 307 53 55
109 155 121 215 14 73 9 171 -17 283 -30 133 -32 333 -4 470 3 14 7 126 9 250
3 204 8 297 20 415 18 164 20 297 7 368 -5 26 -8 48 -6 48 30 10 92 -20 150
-74 39 -35 42 -43 73 -175 17 -75 33 -146 35 -157 11 -57 122 -285 146 -300 6
-4 8 -10 5 -15 -3 -5 -1 -11 5 -15 20 -12 45 -82 56 -155 11 -76 17 -98 51
-175 32 -72 36 -90 38 -180 1 -55 6 -122 10 -150 5 -27 9 -52 10 -55 0 -3 4
-11 8 -17 5 -7 6 -13 2 -13 -3 0 9 -28 26 -62 55 -108 165 -194 256 -200 22
-2 42 -33 48 -74 18 -148 82 -295 166 -388 143 -156 370 -166 496 -21 81 93
94 198 58 460 -18 135 -2 243 61 414 19 52 40 118 46 145 13 63 14 227 3 326
-5 41 -9 116 -9 165 0 89 0 90 43 159 53 82 56 79 76 -55 2 -19 9 -52 15 -74
6 -22 13 -47 15 -55 2 -8 4 -16 5 -17 2 -2 3 -6 5 -10 5 -20 18 -50 30 -73 28
-52 56 -135 60 -174 3 -23 7 -79 10 -126 16 -244 36 -356 84 -465 75 -169 150
-291 237 -382 l56 -58 -9 -65 c-10 -83 -10 -323 1 -375 4 -22 8 -46 9 -52 0
-7 4 -13 9 -13 4 0 8 -7 8 -15 0 -26 30 -67 96 -130 63 -61 72 -76 81 -143 8
-63 9 -66 18 -97 21 -79 119 -215 153 -215 7 0 12 -4 12 -8 0 -5 29 -23 65
-42 36 -19 66 -36 66 -39 1 -3 3 -49 4 -102 3 -130 21 -193 72 -249 13 -14 23
-28 23 -32 0 -5 5 -8 11 -8 6 0 24 -9 40 -21 21 -14 54 -23 112 -29 55 -6 97
-16 129 -33 86 -46 212 -21 280 55 76 86 87 189 35 344 -16 49 -31 98 -33 109
-1 11 -5 38 -9 60 -15 105 -79 276 -119 318 -6 7 -24 30 -40 52 -17 22 -36 44
-43 48 -7 4 -13 15 -13 22 0 8 -4 15 -9 15 -21 0 -33 72 -26 148 19 207 13
321 -21 407 -13 34 -87 139 -111 158 -59 47 -68 74 -70 202 -1 128 -6 168 -27
235 -13 41 -59 134 -75 150 -18 19 -71 130 -77 164 -2 14 5 52 16 83 11 32 22
65 25 73 50 171 54 217 40 395 -8 96 -13 170 -18 250 -3 33 -8 103 -12 155 -5
52 -9 116 -9 142 -1 27 -3 48 -6 48 -3 0 -5 14 -4 32 2 64 -48 164 -108 218
-26 24 -28 29 -27 115 0 50 -4 104 -9 122 -6 17 -8 34 -4 37 3 3 0 6 -6 6 -7
0 -11 3 -10 8 0 4 -1 14 -4 22 -3 8 -11 56 -17 105 -17 143 -29 180 -100 330
-66 138 -76 174 -85 305 -4 54 -6 72 -26 200 -16 111 -21 133 -41 205 -24 82
-95 301 -108 330 -5 11 -23 56 -39 100 -47 122 -53 167 -57 405 -1 96 2 204 6
240 10 68 47 228 57 245 4 6 7 15 8 20 1 6 21 71 44 145 50 159 80 259 85 280
1 8 11 44 20 80 30 114 22 207 -27 307 -41 85 -120 154 -191 169 -29 6 -107 6
-134 0 -37 -8 -129 -74 -174 -124 -38 -43 -109 -175 -109 -202 0 -34 -115
-242 -149 -270 -8 -6 -34 -48 -60 -93 -47 -84 -56 -137 -66 -387 -5 -146 -9
-163 -52 -259 -27 -59 -78 -146 -102 -174 -8 -10 -16 -24 -17 -31 -1 -7 -13
-30 -26 -52 -21 -33 -64 -134 -60 -141 0 -2 -8 -33 -19 -70 -10 -37 -24 -92
-29 -122 -6 -31 -13 -65 -16 -77 -2 -11 -6 -36 -8 -55 -3 -19 -5 -34 -6 -34
-5 0 -21 -161 -24 -240 -2 -38 -15 -122 -29 -185 -24 -107 -31 -149 -42 -258
-4 -43 -41 -122 -57 -122 -4 0 -8 -7 -8 -15 0 -8 -4 -15 -10 -15 -5 0 -10 -7
-10 -15 0 -8 -4 -15 -8 -15 -11 0 -87 -155 -96 -195 -4 -16 -19 -54 -33 -82
-28 -59 -34 -59 -93 0 -33 34 -39 48 -44 97 -1 14 -5 31 -9 37 -4 6 -3 14 2
17 10 7 -11 105 -36 161 -10 22 -31 63 -49 90 -43 70 -46 81 -55 250 -9 173
-8 172 -33 244 -22 64 -24 67 -92 137 -29 29 -58 66 -66 82 -18 36 -22 146 -8
237 13 89 13 89 33 155 9 30 18 66 20 80 3 14 10 43 16 65 12 47 20 93 37 222
21 170 -1 251 -97 345 -77 76 -212 102 -316 63 -50 -19 -143 -117 -176 -185
-13 -25 -41 -76 -64 -115 -39 -65 -107 -215 -98 -215 3 0 0 -11 -5 -25 -12
-33 -22 -104 -25 -190 -2 -38 -4 -70 -5 -70 -1 0 -3 -10 -6 -23 -5 -28 -28
-78 -54 -117 -11 -16 -24 -40 -29 -52 -15 -34 -49 -48 -77 -32 -13 7 -24 16
-24 21 0 4 -5 8 -12 8 -6 0 -19 7 -29 16 -24 22 -120 26 -173 8 -66 -23 -149
-112 -171 -184 -4 -14 -13 -32 -20 -40 -7 -8 -16 -28 -20 -45 -5 -16 -9 -32
-10 -35 -14 -47 -28 -99 -30 -115 -2 -11 -6 -36 -9 -55 -10 -54 -13 -198 -7
-265 3 -33 0 -96 -6 -140 -13 -80 -18 -117 -28 -190 -2 -22 -7 -55 -10 -73 -3
-17 -8 -49 -11 -70 -3 -20 -7 -50 -9 -67 -11 -83 -17 -115 -31 -170 -8 -33
-17 -71 -20 -85 -3 -14 -9 -41 -14 -60 -5 -19 -12 -51 -15 -70 -3 -19 -10 -54
-15 -77 -27 -119 -29 -360 -5 -493 3 -14 7 -41 10 -60 8 -50 43 -194 70 -290
8 -30 18 -75 22 -100 6 -42 8 -281 3 -325 -4 -33 -54 -136 -99 -205 -47 -72
-124 -228 -136 -275 -17 -69 -25 -140 -25 -235 1 -86 4 -131 14 -185 3 -16 8
-45 12 -63 9 -59 41 -145 92 -252 58 -120 71 -186 65 -333 -5 -142 -8 -176
-15 -183 -4 -3 -3 -17 2 -30 6 -16 6 -24 -1 -24 -6 0 -7 -5 -4 -11 4 -5 9 -25
11 -42 5 -35 6 -36 -49 38 -12 16 -32 40 -44 53 -13 12 -23 26 -23 29 0 3 -8
13 -18 22 -32 28 -42 58 -42 129 0 38 -6 90 -14 115 -8 26 -11 47 -8 47 3 0 1
5 -6 12 -7 7 -12 18 -12 26 0 8 -9 27 -21 43 -11 16 -18 29 -14 29 3 0 -3 10
-15 22 -11 12 -20 25 -20 29 0 21 -127 130 -187 162 -70 37 -103 66 -103 92 0
8 -4 15 -8 15 -5 0 -14 16 -22 35 -8 19 -17 35 -22 35 -4 0 -8 5 -8 12 0 22
-51 77 -86 94 -40 19 -94 70 -112 106 -9 19 -109 322 -116 353 -11 48 -32 98
-48 111 -10 10 -18 23 -18 31 0 7 -3 13 -8 13 -14 0 -152 142 -152 156 0 8 -4
14 -10 14 -5 0 -10 9 -10 19 0 11 -4 23 -10 26 -5 3 -10 15 -10 25 0 10 -18
60 -40 110 -83 193 -223 337 -367 378 -129 36 -122 32 -160 96 -44 75 -69 98
-161 142 -68 34 -75 40 -100 92 -14 32 -38 75 -53 96 -22 33 -25 44 -16 63 5
13 14 23 19 23 4 0 8 5 8 11 0 6 9 22 20 37 17 21 30 26 81 29 33 1 79 8 102
15 23 6 44 12 47 12 19 4 106 52 132 74 50 43 118 111 118 119 1 5 14 24 30
43 17 19 30 39 30 46 0 6 6 17 13 23 13 10 65 137 98 237 8 24 42 71 79 113
36 39 65 75 65 79 1 4 10 32 22 62 22 58 32 115 33 190 0 39 6 51 44 90 57 59
108 141 135 215 12 33 25 69 30 80 21 46 24 63 25 120 1 40 -5 73 -17 98 -10
21 -15 42 -12 47 3 6 2 10 -3 10 -17 0 -3 112 22 165 34 76 38 101 41 270 3
168 -4 200 -55 271 -33 46 -37 62 -26 107 50 218 31 398 -55 522 -94 136 -237
225 -354 219 -49 -2 -91 18 -79 37 3 5 0 9 -6 9 -6 0 -8 5 -5 10 12 20 -46
115 -94 154 -66 54 -109 68 -224 72 -107 4 -142 15 -197 67 -31 28 -125 92
-185 123 -110 59 -216 128 -223 146 -2 4 -8 8 -13 8 -5 0 -31 13 -57 30 -43
26 -106 53 -152 65 -8 3 -33 9 -55 15 -44 11 -282 21 -330 14z m75 -1524 c19
-5 53 -11 75 -15 66 -9 74 -15 99 -64 32 -62 99 -136 150 -166 38 -22 96 -41
156 -52 38 -6 52 -26 55 -76 3 -57 36 -122 103 -203 29 -36 53 -73 54 -82 0
-9 -9 -40 -19 -67 -29 -75 -22 -177 16 -238 11 -18 24 -51 29 -74 13 -55 9
-60 -167 -227 -23 -21 -41 -42 -41 -47 0 -4 -6 -14 -13 -21 -33 -34 -72 -152
-82 -249 -3 -31 -25 -101 -35 -112 -4 -5 -27 -10 -51 -13 -71 -7 -106 -14
-168 -34 -63 -20 -177 -76 -199 -97 -66 -64 -191 -37 -208 45 -4 20 -8 42 -9
47 -1 6 -3 12 -4 15 -2 3 -4 14 -6 25 -4 20 -26 66 -35 75 -3 3 -16 19 -27 36
-19 27 -21 40 -17 118 3 49 0 114 -7 145 -12 59 -53 151 -68 151 -8 0 -46 78
-44 90 2 11 15 137 17 160 1 14 -2 42 -6 64 -10 44 -57 149 -70 154 -4 2 -6 7
-3 12 3 4 -2 13 -10 20 -8 7 -15 17 -15 22 0 5 -9 18 -20 30 -11 12 -20 31
-21 42 -2 56 4 114 16 143 13 30 13 107 1 183 -6 36 1 76 11 66 4 -3 12 -1 19
5 8 6 20 9 28 6 8 -3 17 -3 20 0 3 4 23 8 43 10 21 2 58 14 83 25 25 12 47 22
50 23 5 1 63 37 94 57 10 7 31 23 46 36 16 12 43 29 62 36 32 14 42 14 118 -4z"/>
</g>
</svg>
